<svg xmlns="http://www.w3.org/2000/svg" xmlns:xlink="http://www.w3.org/1999/xlink" width="500" zoomAndPan="magnify" viewBox="0 0 375 374.999991" height="500" preserveAspectRatio="xMidYMid meet" version="1.2"><g id="d10429f149"><path style=" stroke:none;fill-rule:nonzero;fill:#2f80ed;fill-opacity:1;" d="M 112.679688 238.472656 C 108.820312 242.355469 105.503906 246.175781 101.710938 249.433594 C 97.453125 253.089844 98.570312 255.585938 102.058594 259.140625 C 112.371094 269.652344 123.730469 278.917969 135.527344 287.59375 C 150.402344 298.527344 165.78125 308.753906 181.730469 318.125 C 185.96875 320.617188 189.109375 320.453125 193.195312 318.054688 C 215.582031 304.914062 236.789062 290.144531 256.46875 273.207031 C 263.992188 266.730469 265.15625 266.757812 272.367188 273.832031 C 277.097656 278.472656 281.828125 283.121094 286.746094 287.554688 C 289.863281 290.363281 289.949219 292.425781 286.628906 295.265625 C 257.242188 320.402344 225.808594 342.566406 191.886719 361.183594 C 188.75 362.902344 186.054688 363.164062 182.878906 361.378906 C 143.515625 339.292969 106.164062 314.339844 73.898438 282.550781 C 54.464844 263.402344 46.183594 238.859375 43.125 212.296875 C 41.351562 196.902344 41.410156 181.5 42.835938 166.058594 C 43.242188 161.679688 45.164062 158.605469 48.050781 155.644531 C 79.585938 123.292969 111.25 91.066406 142.496094 58.4375 C 156.507812 43.808594 171.222656 29.828125 184.21875 14.234375 C 187.207031 10.648438 189.554688 13.195312 191.644531 15.367188 C 200.414062 24.484375 209.042969 33.738281 217.832031 42.835938 C 252.855469 79.074219 287.75 115.445312 323.117188 151.351562 C 330.4375 158.785156 333.738281 166.28125 333.398438 176.828125 C 332.699219 198.316406 332.449219 219.742188 325.371094 240.378906 C 321.828125 250.703125 316.605469 260.175781 310.519531 269.1875 C 307.191406 274.121094 305.414062 274.3125 301.042969 270.089844 C 290.351562 259.773438 279.691406 249.417969 269.15625 238.9375 C 266.386719 236.183594 263.4375 234.96875 259.527344 235.082031 C 212.953125 236.445312 166.363281 235.964844 119.78125 236.304688 C 117.359375 236.324219 114.921875 236.289062 112.679688 238.472656 M 84.261719 214.492188 C 117.125 180.632812 150.035156 146.820312 182.777344 112.847656 C 186.332031 109.160156 188.417969 108.554688 192.347656 112.609375 C 222.804688 144.046875 253.492188 175.257812 284.167969 206.484375 C 287.34375 209.71875 290.472656 213.089844 294.398438 215.425781 C 296.226562 214.101562 296 212.417969 296.300781 210.878906 C 298.085938 201.722656 297.09375 192.457031 297.558594 183.253906 C 297.78125 178.828125 296.164062 175.726562 293.136719 172.667969 C 267.277344 146.5625 241.644531 120.234375 215.707031 94.207031 C 206.378906 84.84375 196.410156 76.113281 186.734375 67.097656 C 186.050781 66.089844 185.152344 67.5625 184.074219 68.671875 C 149.652344 104.101562 115.253906 139.554688 80.863281 175.011719 C 79.328125 176.597656 77.6875 178.195312 77.710938 180.636719 C 77.84375 192.964844 76.585938 205.375 79.59375 218.214844 C 81.265625 216.9375 82.484375 216.007812 84.261719 214.492188 M 189.035156 162.4375 C 186.441406 160.890625 185.4375 163.257812 184.140625 164.554688 C 179.019531 169.660156 174.066406 174.929688 168.90625 179.996094 C 161.988281 186.789062 154.9375 193.445312 147.96875 200.140625 C 174.015625 200.140625 199.046875 200.140625 224.078125 200.140625 C 224.238281 199.570312 224.398438 198.996094 224.5625 198.421875 C 212.921875 186.597656 201.285156 174.769531 189.035156 162.4375 Z M 189.035156 162.4375 "/></g></svg>